<svg xmlns="http://www.w3.org/2000/svg" viewBox="0 0 64 63.8">
    <g>
        <path fill="rgb(255,156,0)" d="M17.95,14.14a23.17,23.17,0,0,1,28.1,0l5.73-7.06a32.23,32.23,0,0,0-39.58,0Z" transform="translate(0 -0.29)"/>
        <path fill="rgb(255,255,255)" d="M53.55,8.57l-5.74,7.07A22.41,22.41,0,0,1,51.88,43.3L39.26,31.18,33.38,17.92V38.05L45.85,50a23.17,23.17,0,0,1-27.7,0l12.47-12V17.92L24.74,31.18,12.13,43.3a22.4,22.4,0,0,1,4.06-27.66L10.44,8.55A31.48,31.48,0,0,0,0,32a32,32,0,0,0,64,0A31.52,31.52,0,0,0,53.55,8.57Z" transform="translate(0 -0.29)"/>
        <path fill="rgb(255,255,255)" d="M61.64,49.72H62a2.15,2.15,0,0,1,.37,0,.4.4,0,0,1,.19.08.43.43,0,0,1,.14.35.41.41,0,0,1-.33.44l.47.62h-.41L62,50.66v.57h-.33ZM62,50v.4h0a.46.46,0,0,0,.21,0,.18.18,0,0,0,.08-.16.18.18,0,0,0-.06-.16A.36.36,0,0,0,62,50Zm.16,1.8a1.31,1.31,0,1,1,1.31-1.31A1.31,1.31,0,0,1,62.14,51.79Zm1.08-1.31a1.08,1.08,0,1,0-1.08,1.08A1.08,1.08,0,0,0,63.22,50.47Z" transform="translate(0 -0.29)"/>
    </g>
</svg>
